<?xml version="1.0" encoding="UTF-8"?>
<!DOCTYPE svg PUBLIC "-//W3C//DTD SVG 1.1//EN" "http://www.w3.org/Graphics/SVG/1.1/DTD/svg11.dtd">
<!-- Creator: CorelDRAW -->
<svg xmlns="http://www.w3.org/2000/svg" xml:space="preserve" width="500px" height="180px" version="1.1" style="shape-rendering:geometricPrecision; text-rendering:geometricPrecision; image-rendering:optimizeQuality; fill-rule:evenodd; clip-rule:evenodd"
viewBox="0 0 500 180"
 xmlns:xlink="http://www.w3.org/1999/xlink"
 xmlns:xodm="http://www.corel.com/coreldraw/odm/2003">
 <defs>
  <style type="text/css">
   <![CDATA[
    .fil2 {fill:#002856;fill-rule:nonzero}
    .fil0 {fill:#FF0072;fill-rule:nonzero}
    .fil1 {fill:white;fill-rule:nonzero}
   ]]>
  </style>
 </defs>
 <g id="Capa_x0020_1">
  <metadata id="CorelCorpID_0Corel-Layer"/>
  <g id="_1486580858928">
   <path class="fil0" d="M53.57 43.22c-1.58,1.98 -3.89,2.97 -6.91,2.97 -2.97,0 -5.24,-0.99 -6.83,-2.97 -1.58,-1.98 -2.38,-4.9 -2.38,-8.76 0,-3.82 0.81,-6.72 2.42,-8.73 1.61,-2 3.9,-3.01 6.87,-3.01 2.97,0 5.25,1.01 6.83,3.01 1.59,2.01 2.38,4.91 2.38,8.73 0,3.86 -0.79,6.78 -2.38,8.76zm2.93 -25.32c-2.79,-1.54 -6.05,-2.31 -9.76,-2.31 -3.71,0 -6.97,0.77 -9.77,2.31 -2.8,1.53 -4.96,3.72 -6.5,6.57 -1.53,2.85 -2.3,6.17 -2.3,9.99 0,3.81 0.77,7.15 2.3,10.02 1.54,2.88 3.7,5.08 6.5,6.61 2.8,1.54 6.06,2.31 9.77,2.31 3.71,0 6.97,-0.77 9.76,-2.31 2.8,-1.53 4.96,-3.73 6.47,-6.61 1.51,-2.87 2.26,-6.21 2.26,-10.02 0,-3.82 -0.75,-7.14 -2.26,-9.99 -1.51,-2.85 -3.67,-5.04 -6.47,-6.57z"/>
   <path class="fil0" d="M92.84 16.56c-0.48,-0.41 -1.07,-0.64 -1.76,-0.78 -0.43,-0.08 -1.82,-0.12 -2.56,-0.11 -2.46,0.02 -7.82,0.12 -10.31,2.95 -0.13,-0.42 -0.17,-0.97 -1.04,-1.8 -0.78,-0.74 -1.84,-1.08 -3.12,-1.08 -1.29,0 -2.37,0.37 -3.23,1.12 -0.87,0.74 -1.3,1.8 -1.3,3.19l0 28.74c0,1.44 0.43,2.54 1.3,3.31 0.86,0.76 1.96,1.15 3.3,1.15 1.34,0 2.45,-0.39 3.34,-1.15 0.89,-0.77 1.34,-1.87 1.34,-3.31l0 -15.6c0,-2.52 0.68,-4.62 2.04,-6.31 1.36,-1.68 3.51,-2.67 6.43,-2.97l2.22 -0.22c1.69,-0.2 2.85,-0.62 3.5,-1.26 0.64,-0.65 0.96,-1.64 0.96,-2.97 0,-1.29 -0.37,-2.26 -1.11,-2.9z"/>
   <path class="fil0" d="M140 15.59c-2.68,0 -5.08,0.62 -7.21,1.86 -2.13,1.24 -3.74,2.9 -4.83,4.98 -1.83,-4.56 -5.47,-6.84 -10.91,-6.84 -2.48,0 -4.67,0.52 -6.58,1.56 -1.9,1.04 -3.43,2.55 -4.56,4.53l0 -1.78c0,-1.34 -0.41,-2.36 -1.23,-3.08 -0.82,-0.72 -1.87,-1.08 -3.16,-1.08 -1.33,0 -2.45,0.37 -3.34,1.12 -0.89,0.74 -1.34,1.8 -1.34,3.19l0 28.74c0,1.44 0.44,2.54 1.3,3.31 0.87,0.76 1.97,1.15 3.31,1.15 1.34,0 2.45,-0.39 3.34,-1.15 0.89,-0.77 1.34,-1.87 1.34,-3.31l0 -16.56c0,-2.87 0.7,-5.14 2.11,-6.8 1.42,-1.65 3.33,-2.48 5.76,-2.48 1.98,0 3.46,0.58 4.42,1.74 0.97,1.17 1.45,3.11 1.45,5.83l0 18.27c0,1.44 0.44,2.54 1.34,3.31 0.89,0.76 2,1.15 3.34,1.15 1.33,0 2.44,-0.39 3.3,-1.15 0.87,-0.77 1.3,-1.87 1.3,-3.31l0 -16.56c0,-2.87 0.72,-5.14 2.16,-6.8 1.43,-1.65 3.36,-2.48 5.79,-2.48 1.98,0 3.45,0.58 4.42,1.74 0.96,1.17 1.45,3.11 1.45,5.83l0 18.27c0,1.44 0.43,2.54 1.3,3.31 0.86,0.76 1.96,1.15 3.3,1.15 1.39,0 2.51,-0.39 3.38,-1.15 0.87,-0.77 1.3,-1.87 1.3,-3.31l0 -18.27c0,-5.25 -1.05,-9.05 -3.16,-11.4 -2.1,-2.35 -5.13,-3.53 -9.09,-3.53z"/>
   <path class="fil0" d="M178.77 37.8c0,2.62 -0.78,4.77 -2.34,6.42 -1.56,1.66 -3.58,2.49 -6.06,2.49 -1.63,0 -3,-0.51 -4.12,-1.52 -1.11,-1.01 -1.67,-2.31 -1.67,-3.9 0,-1.29 0.4,-2.3 1.19,-3.04 0.79,-0.75 2.1,-1.27 3.93,-1.56 1.84,-0.3 4.41,-0.45 7.73,-0.45l1.34 0 0 1.56zm-6.09 -22.21c-2.33,0 -4.7,0.28 -7.1,0.82 -2.4,0.54 -4.47,1.29 -6.2,2.23 -0.99,0.54 -1.7,1.12 -2.12,1.74 -0.42,0.62 -0.63,1.35 -0.63,2.19 0,1.04 0.29,1.89 0.86,2.53 0.57,0.64 1.3,0.96 2.19,0.96 0.59,0 1.53,-0.32 2.82,-0.96 2.03,-0.79 3.79,-1.4 5.27,-1.82 1.49,-0.42 2.95,-0.63 4.39,-0.63 2.32,0 4.01,0.56 5.05,1.67 1.04,1.11 1.56,2.88 1.56,5.31l0 1.71 -1.86 0c-5.4,0 -9.63,0.35 -12.7,1.04 -3.07,0.69 -5.29,1.81 -6.65,3.34 -1.36,1.54 -2.04,3.64 -2.04,6.31 0,2.13 0.57,4.06 1.71,5.8 1.14,1.73 2.7,3.09 4.68,4.08 1.98,0.99 4.18,1.49 6.61,1.49 2.97,0.12 6.83,-0.43 10.83,-2.23 0.17,0.3 0.39,0.57 0.64,0.82 0.82,0.79 1.87,1.18 3.16,1.18 1.38,0 2.47,-0.38 3.27,-1.15 0.79,-0.76 1.18,-1.82 1.18,-3.15l0 -18.13c0,-5.09 -1.22,-8.9 -3.67,-11.4 -2.45,-2.5 -6.2,-3.75 -11.25,-3.75z"/>
   <path class="fil0" d="M217.66 43.15c-1.61,2.03 -3.9,3.04 -6.88,3.04 -2.92,0 -5.19,-1.04 -6.83,-3.12 -1.63,-2.08 -2.45,-5 -2.45,-8.76 0,-3.71 0.82,-6.56 2.45,-8.54 1.64,-1.98 3.94,-2.97 6.91,-2.97 2.92,0 5.19,1 6.8,3 1.6,2.01 2.41,4.9 2.41,8.66 0,3.76 -0.81,6.66 -2.41,8.69zm10.28 -41.89c-0.89,-0.79 -2.03,-1.19 -3.41,-1.19 -1.39,0 -2.49,0.38 -3.31,1.15 -0.82,0.77 -1.22,1.77 -1.22,3.01l0 14.51c-3.25,-3.31 -13.18,-5.52 -20.06,-0.84 -2.42,1.53 -4.32,3.71 -5.68,6.53 -1.36,2.82 -2.04,6.12 -2.04,9.88 0,3.76 0.68,7.09 2.04,9.99 1.36,2.89 3.27,5.14 5.72,6.72 2.2,1.42 4.18,1.86 7.27,2.25 0.77,0.09 1.56,0.14 2.33,0.13 8.52,-0.1 11.01,-2.37 11.01,-2.37 0,0 0.44,0.67 0.74,0.96 0.84,0.79 1.96,1.18 3.34,1.18 1.39,0 2.5,-0.39 3.35,-1.18 0.84,-0.8 1.26,-1.86 1.26,-3.2l0 -44.41c0,-1.29 -0.45,-2.33 -1.34,-3.12z"/>
   <path class="fil0" d="M301.38 37.13c-0.81,-1.34 -2.16,-2.45 -4.04,-3.34 -1.89,-0.89 -4.48,-1.68 -7.8,-2.38 -3.12,-0.64 -5.23,-1.28 -6.31,-1.93 -1.09,-0.64 -1.64,-1.58 -1.64,-2.82 0,-1.29 0.53,-2.3 1.6,-3.05 1.06,-0.74 2.51,-1.11 4.34,-1.11 1.54,0 2.82,0.19 3.87,0.56 1.03,0.37 2.27,0.93 3.71,1.67 0.79,0.44 1.45,0.78 1.97,1 0.52,0.22 1.05,0.33 1.59,0.33 0.79,0 1.46,-0.33 2.01,-1 0.54,-0.67 0.82,-1.49 0.82,-2.49 0,-1.63 -0.8,-2.94 -2.38,-3.93 -1.54,-0.99 -3.27,-1.75 -5.2,-2.27 -1.93,-0.52 -3.94,-0.78 -6.01,-0.78 -2.88,0 -5.44,0.49 -7.69,1.45 -2.26,0.97 -4.03,2.33 -5.31,4.09 -1.29,1.75 -1.93,3.72 -1.93,5.9 0,2.87 0.95,5.13 2.86,6.76 1.9,1.63 5.06,2.9 9.47,3.79 2.47,0.54 4.31,1.02 5.53,1.44 1.21,0.43 2.05,0.88 2.52,1.38 0.47,0.49 0.71,1.16 0.71,2 0,1.24 -0.58,2.21 -1.75,2.9 -1.16,0.69 -2.78,1.04 -4.86,1.04 -2.03,0 -3.7,-0.2 -5.01,-0.59 -1.32,-0.4 -2.77,-0.97 -4.35,-1.71 -1.48,-0.79 -2.65,-1.19 -3.49,-1.19 -0.79,0 -1.46,0.31 -2,0.93 -0.55,0.62 -0.82,1.42 -0.82,2.41 0,1.74 0.79,3.07 2.37,4.01 3.32,2.13 7.68,3.2 13.08,3.2 4.65,0 8.38,-1.02 11.17,-3.05 2.8,-2.03 4.2,-4.73 4.2,-8.09 0,-2.08 -0.41,-3.79 -1.23,-5.13z"/>
   <path class="fil0" d="M18.81 9.53c-1.04,1.25 -1.56,3.04 -1.56,5.38l0 1.72 6.34 0c2.79,0 4.18,1.16 4.18,3.5 0,2.34 -1.39,3.51 -4.18,3.51l-6.34 0 0 25.46c0,1.44 -0.44,2.54 -1.31,3.29 -0.87,0.74 -1.98,1.12 -3.32,1.12 -1.35,0 -2.47,-0.38 -3.36,-1.12 -0.9,-0.75 -1.35,-1.85 -1.35,-3.29l0 -25.46 -3.73 0c-2.79,0 -4.18,-1.17 -4.18,-3.51 0,-2.34 1.39,-3.5 4.18,-3.5l3.73 0 0 -0.53c0,-4.68 1.24,-8.35 3.7,-11.01 2.46,-2.66 5.93,-4.17 10.41,-4.52l1.94 -0.15c1.99,-0.14 3.4,0.07 4.22,0.64 0.82,0.57 1.23,1.45 1.23,2.65 0,2.14 -1.22,3.33 -3.65,3.58l-1.95 0.15c-2.29,0.15 -3.95,0.85 -5,2.09z"/>
   <path class="fil0" d="M267.69 24.47c-1.51,-2.85 -3.67,-5.04 -6.46,-6.58 -2.8,-1.53 -6.06,-2.3 -9.77,-2.3 -3.71,0 -6.97,0.77 -9.77,2.3 -2.79,1.54 -4.96,3.73 -6.5,6.58 -1.53,2.85 -2.3,6.17 -2.3,9.99 0,3.81 0.77,7.15 2.3,10.02 1.54,2.88 3.71,5.08 6.5,6.61 1.12,0.62 2.31,1.1 3.58,1.47 0.9,0.26 1.84,-0.27 2.06,-1.18l2.31 -9.52c0.18,-0.74 -0.2,-1.47 -0.89,-1.81 -2.18,-1.07 -3.64,-3.41 -3.38,-6.06 0.28,-2.98 2.81,-5.36 5.8,-5.48 3.48,-0.14 6.34,2.63 6.34,6.08 0,2.39 -1.38,4.45 -3.38,5.44 -0.71,0.35 -1.1,1.12 -0.92,1.88l2.31 9.49c0.21,0.89 1.11,1.45 1.99,1.2 1.32,-0.37 2.56,-0.87 3.72,-1.51 2.79,-1.53 4.95,-3.73 6.46,-6.61 1.51,-2.87 2.26,-6.21 2.26,-10.02 0,-3.82 -0.75,-7.14 -2.26,-9.99z"/>
   <path class="fil0" d="M500 174.68c0,2.89 -2.36,5.25 -5.25,5.25l-168.03 0c-2.89,0 -5.25,-2.36 -5.25,-5.25l0 -168.04c0,-2.89 2.36,-5.25 5.25,-5.25l168.03 0c2.89,0 5.25,2.36 5.25,5.25l0 168.04z"/>
   <path class="fil1" d="M447.29 18.82c-0.33,-4.56 4,-6.93 8.49,-6.93 4.83,0 9.65,2.53 8.99,7.27l-1.17 17.09 14.65 -5.75c1.33,-0.51 2.66,-0.68 3.83,-0.68 5.32,0 8.65,4.91 8.65,9.48 0,3.22 -1.66,6.09 -5.49,6.94l-17.97 4.23 12.31 13.03c1.67,1.86 2.33,3.72 2.33,5.58 0,4.74 -5.16,8.63 -9.98,8.63 -2.33,0 -4.5,-1.01 -6,-3.21l-9.98 -15.23 -10.32 15.23c-1.5,2.2 -3.5,3.04 -5.49,3.04 -4.66,0 -9.82,-4.73 -9.82,-9.3 0,-1.36 0.33,-2.54 1.5,-3.73l11.98 -14.38 -18.14 -3.89c-3.16,-0.68 -4.5,-3.56 -4.5,-6.6 0,-4.74 2.83,-10.15 7.16,-10.15 0.67,0 1.33,0.16 2.16,0.5l17.48 6.26 -0.67 -17.43z"/>
   <path class="fil1" d="M372.29 141.36c0,-0.29 0.02,-0.57 0.08,-0.85 0.05,-0.29 0.13,-0.55 0.23,-0.81 0.11,-0.25 0.24,-0.5 0.4,-0.73 0.15,-0.23 0.32,-0.45 0.53,-0.66 0.2,-0.19 0.42,-0.38 0.66,-0.54 0.23,-0.15 0.47,-0.28 0.73,-0.39 0.25,-0.09 0.53,-0.17 0.8,-0.22 0.29,-0.05 0.56,-0.08 0.85,-0.08 0.29,0 0.58,0.03 0.85,0.08l0.02 0c0.27,0.05 0.53,0.12 0.8,0.22l0.02 0.01c0.25,0.11 0.48,0.24 0.71,0.38 0.22,0.16 0.44,0.35 0.65,0.54 0.2,0.21 0.38,0.42 0.54,0.66 0.16,0.23 0.29,0.48 0.39,0.73l0.02 0.04c0.09,0.23 0.17,0.5 0.22,0.76l0 0.02c0.05,0.28 0.08,0.55 0.08,0.84l-0.02 0.04 0.03 0.75 0 0.02 0.01 0.42 0 0.02 0.02 0.51 0 0.63 0 0.01 0.01 0.58 0 3.02 0 3.46c0,0.98 -0.01,2.45 -0.03,4.41 0,0.58 0,2.04 -0.01,3.76 0,2.86 -0.01,6.38 -0.03,7.54l0.02 0.07 0 0.01c-0.02,0.29 -0.04,0.56 -0.08,0.84 -0.05,0.28 -0.13,0.55 -0.24,0.8 -0.1,0.26 -0.23,0.5 -0.39,0.73 -0.16,0.24 -0.34,0.46 -0.54,0.66l-0.04 0.04c-0.19,0.18 -0.39,0.35 -0.61,0.49 -0.24,0.16 -0.49,0.29 -0.73,0.4 -0.27,0.1 -0.53,0.18 -0.8,0.23l-0.03 0c-0.28,0.06 -0.55,0.08 -0.84,0.08 -0.59,0 -1.14,-0.1 -1.65,-0.31 -0.25,-0.11 -0.5,-0.24 -0.73,-0.4 -0.24,-0.15 -0.46,-0.32 -0.66,-0.53l-0.02 -0.03c-0.2,-0.2 -0.37,-0.4 -0.51,-0.63 -0.16,-0.22 -0.29,-0.47 -0.4,-0.73 -0.1,-0.25 -0.18,-0.52 -0.23,-0.8 -0.06,-0.28 -0.08,-0.56 -0.08,-0.85l0 -25.24z"/>
   <path class="fil1" d="M373.53 128.16c-0.82,-0.85 -1.24,-1.86 -1.24,-3.05 0,-1.19 0.42,-2.21 1.24,-3.06 0.41,-0.42 0.87,-0.74 1.36,-0.95l0.03 -0.01c0.51,-0.21 1.06,-0.33 1.66,-0.33 0.59,0 1.14,0.12 1.67,0.33 0.51,0.21 0.98,0.52 1.4,0.96 0.42,0.41 0.73,0.89 0.94,1.4 0.22,0.51 0.33,1.06 0.33,1.66 0,0.29 -0.04,0.58 -0.11,0.85 -0.06,0.29 -0.15,0.56 -0.28,0.83 -0.25,0.51 -0.58,0.97 -1,1.36 -0.21,0.21 -0.43,0.38 -0.65,0.54 -0.23,0.15 -0.47,0.28 -0.74,0.4 -0.26,0.12 -0.52,0.2 -0.78,0.26 -0.27,0.06 -0.53,0.1 -0.78,0.1 -0.59,0 -1.12,-0.11 -1.62,-0.32l-0.04 -0.01c-0.51,-0.21 -0.97,-0.53 -1.39,-0.96z"/>
   <path class="fil1" d="M411.66 128.16c-0.83,-0.85 -1.25,-1.86 -1.25,-3.05 0,-1.19 0.42,-2.21 1.25,-3.06 0.4,-0.42 0.86,-0.74 1.36,-0.95l0.02 -0.01c0.51,-0.21 1.07,-0.33 1.67,-0.33 0.59,0 1.14,0.12 1.66,0.33 0.51,0.21 0.98,0.52 1.4,0.96 0.42,0.41 0.73,0.89 0.95,1.4 0.22,0.51 0.32,1.06 0.32,1.66 0,0.29 -0.04,0.58 -0.1,0.85 -0.06,0.29 -0.16,0.56 -0.28,0.83l-0.01 0c-0.25,0.51 -0.58,0.97 -1,1.36 -0.21,0.21 -0.43,0.38 -0.65,0.54 -0.22,0.15 -0.47,0.28 -0.73,0.4 -0.27,0.12 -0.53,0.2 -0.78,0.26 -0.27,0.06 -0.53,0.1 -0.78,0.1 -0.59,0 -1.13,-0.11 -1.63,-0.32l-0.04 -0.01c-0.51,-0.21 -0.97,-0.53 -1.38,-0.96z"/>
   <path class="fil1" d="M410.41 141.36c0,-0.29 0.03,-0.57 0.08,-0.85 0.05,-0.29 0.13,-0.55 0.24,-0.81 0.1,-0.25 0.23,-0.5 0.39,-0.73 0.16,-0.23 0.33,-0.45 0.54,-0.66 0.19,-0.19 0.41,-0.38 0.65,-0.54 0.24,-0.15 0.49,-0.28 0.73,-0.39 0.27,-0.09 0.53,-0.17 0.8,-0.22 0.29,-0.05 0.57,-0.08 0.85,-0.08 0.29,0 0.58,0.03 0.87,0.08 0.27,0.05 0.55,0.12 0.8,0.22l0.02 0.01c0.25,0.11 0.49,0.24 0.71,0.38 0.22,0.16 0.45,0.35 0.66,0.54 0.19,0.21 0.37,0.42 0.53,0.66 0.16,0.23 0.29,0.48 0.39,0.73l0.02 0.04c0.09,0.23 0.17,0.5 0.22,0.76l0 0.02c0.05,0.28 0.08,0.55 0.08,0.84l0 0.04 0.01 0.75 0 0.02 0.02 0.42 0 0.02 0.01 0.51 0.01 0.63 0 0.01 0 0.58 0 3.02 0 3.46c0,0.98 -0.01,2.45 -0.01,4.41 -0.01,0.58 -0.01,2.04 -0.01,3.76 -0.02,2.86 -0.03,6.38 -0.05,7.54l0.02 0.07 0 0.01c0,0.29 -0.03,0.56 -0.08,0.84 -0.05,0.28 -0.13,0.55 -0.24,0.8 -0.1,0.26 -0.23,0.5 -0.39,0.73 -0.16,0.24 -0.34,0.46 -0.53,0.66l-0.04 0.04c-0.2,0.18 -0.4,0.35 -0.62,0.49 -0.23,0.16 -0.48,0.29 -0.73,0.4 -0.26,0.1 -0.53,0.18 -0.8,0.23l-0.03 0c-0.27,0.06 -0.55,0.08 -0.84,0.08 -0.58,0 -1.14,-0.1 -1.65,-0.31 -0.24,-0.11 -0.49,-0.24 -0.73,-0.4 -0.24,-0.15 -0.46,-0.32 -0.65,-0.53l-0.03 -0.03c-0.2,-0.2 -0.37,-0.4 -0.51,-0.63 -0.16,-0.22 -0.29,-0.47 -0.39,-0.73 -0.11,-0.25 -0.19,-0.52 -0.24,-0.8 -0.05,-0.28 -0.08,-0.56 -0.08,-0.85l0 -25.24z"/>
   <path class="fil1" d="M341.12 150.07c-0.11,0.89 -0.16,1.87 -0.16,2.93l0 2.28c0,1.07 0.05,2.03 0.16,2.92 0.11,0.87 0.26,1.65 0.47,2.35 0.21,0.69 0.46,1.31 0.75,1.86 0.29,0.53 0.61,1.01 0.98,1.4 0.35,0.39 0.76,0.73 1.21,1.02 0.44,0.28 0.92,0.51 1.43,0.68 0.54,0.17 1.11,0.3 1.68,0.37 0.59,0.08 1.21,0.1 1.85,0.09l0.03 0c1.28,0.04 2.46,-0.1 3.53,-0.43 0.51,-0.16 0.98,-0.38 1.43,-0.66 0.44,-0.27 0.85,-0.61 1.21,-1.01 0.36,-0.39 0.69,-0.86 0.97,-1.41 0.31,-0.55 0.55,-1.18 0.75,-1.87 0.21,-0.71 0.37,-1.5 0.47,-2.39 0.11,-0.89 0.16,-1.85 0.16,-2.92l0 -2.28c0,-1.07 -0.05,-2.05 -0.16,-2.94 -0.1,-0.89 -0.26,-1.7 -0.47,-2.44 -0.21,-0.72 -0.46,-1.37 -0.75,-1.95 -0.28,-0.57 -0.61,-1.07 -0.99,-1.5 -0.37,-0.44 -0.77,-0.8 -1.2,-1.11 -0.45,-0.3 -0.94,-0.53 -1.45,-0.72 -0.52,-0.18 -1.07,-0.31 -1.66,-0.39 -0.59,-0.08 -1.2,-0.12 -1.84,-0.09l-0.03 0c-0.64,-0.03 -1.25,0.01 -1.83,0.1 -0.59,0.08 -1.14,0.23 -1.67,0.42 -0.52,0.19 -0.99,0.44 -1.44,0.75 -0.44,0.3 -0.85,0.67 -1.22,1.1 -0.36,0.43 -0.7,0.93 -0.99,1.49 -0.29,0.59 -0.54,1.24 -0.75,1.94 -0.21,0.71 -0.36,1.52 -0.47,2.41zm-0.28 19.24c-0.19,-0.08 -0.39,-0.17 -0.57,-0.26l-0.04 0.04 -0.01 0.02c-0.13,0.19 -0.29,0.36 -0.45,0.51 -0.19,0.21 -0.42,0.38 -0.65,0.55 -0.24,0.16 -0.49,0.29 -0.75,0.4 -0.26,0.1 -0.54,0.18 -0.81,0.23 -0.29,0.06 -0.58,0.08 -0.88,0.08 -0.29,0 -0.58,-0.02 -0.86,-0.08 -0.28,-0.05 -0.54,-0.13 -0.79,-0.22l-0.03 -0.01c-0.26,-0.11 -0.51,-0.24 -0.74,-0.4 -0.23,-0.15 -0.43,-0.32 -0.63,-0.52l-0.03 -0.03c-0.21,-0.21 -0.39,-0.43 -0.55,-0.66 -0.15,-0.24 -0.29,-0.49 -0.39,-0.75 -0.21,-0.51 -0.33,-1.07 -0.33,-1.68l0 -12.43 0 -0.01 0 -0.01 0 -0.01 0 -0.02 0 -0.01 0 -0.01 0 -0.02 0 -0.01 0 -0.01 0 -0.02 0 -0.01 0 -0.01 0 -0.02 0 -0.01 0 -0.01 0 -0.03 0 -0.01 0 -0.03 0 -0.01 0 -0.01 0 -0.03 0 -0.03 0 -0.01 0 -0.02 0 -0.03 0 -0.03 0 -0.01 0 -0.03 0 -0.02 0 -0.03 0 -0.03 0 -0.01 0 -0.02 0 -0.91 0 -5.65 0 -17.74 0 -4.11c0,-0.28 0.03,-0.56 0.08,-0.84l0.01 -0.02c0.06,-0.29 0.13,-0.55 0.24,-0.82 0.1,-0.26 0.24,-0.51 0.39,-0.74 0.15,-0.23 0.32,-0.43 0.51,-0.63l0.04 -0.03 0 -0.01c0.21,-0.2 0.42,-0.38 0.66,-0.54 0.23,-0.16 0.48,-0.3 0.74,-0.4 0.27,-0.1 0.54,-0.17 0.82,-0.24 0.28,-0.05 0.57,-0.08 0.86,-0.08 0.3,0 0.59,0.03 0.88,0.08 0.27,0.07 0.55,0.14 0.81,0.24 0.25,0.1 0.51,0.24 0.75,0.4 0.23,0.16 0.46,0.34 0.65,0.54l0.01 0.01c0.2,0.21 0.38,0.42 0.54,0.66 0.16,0.23 0.3,0.48 0.41,0.74 0.09,0.27 0.17,0.53 0.22,0.82 0.06,0.28 0.09,0.57 0.09,0.86l-0.01 0 0 0.01 0.03 0.8 0.01 0.46 0.01 0.52 0.01 0.63 0 0.02 0 0.6 0 3.08 0 3.52 0 1.03 0 0.07 0 0.06 0 2.92c0.4,-0.17 0.79,-0.32 1.21,-0.49 0.69,-0.27 1.43,-0.51 2.18,-0.75 1.56,-0.47 3.35,-0.71 5.35,-0.71 1.45,0 2.82,0.11 4.06,0.31 1.26,0.2 2.41,0.52 3.44,0.94 1.04,0.42 1.98,0.91 2.84,1.5 0.86,0.59 1.63,1.26 2.31,2.03 0.68,0.76 1.28,1.59 1.78,2.51 0.51,0.9 0.93,1.88 1.27,2.93 0.34,1.05 0.6,2.16 0.79,3.33 0.18,1.16 0.3,2.38 0.35,3.66l0 0.04c-0.05,1.28 -0.17,2.5 -0.35,3.66 -0.2,1.15 -0.46,2.23 -0.79,3.26 -0.34,1.04 -0.76,2 -1.27,2.88 -0.51,0.89 -1.1,1.7 -1.78,2.45 -0.68,0.73 -1.45,1.38 -2.32,1.95 -0.86,0.56 -1.81,1.05 -2.84,1.44 -1.03,0.39 -2.17,0.69 -3.43,0.89 -1.26,0.2 -2.61,0.29 -4.06,0.29 -1.52,0 -2.93,-0.09 -4.24,-0.29 -1.3,-0.2 -2.49,-0.49 -3.58,-0.88l-0.03 -0.01c-0.38,-0.13 -0.75,-0.29 -1.14,-0.46z"/>
   <path class="fil1" d="M433.25 150.07c-0.1,0.89 -0.15,1.87 -0.15,2.93l0 2.28c0,1.07 0.05,2.03 0.15,2.92 0.11,0.87 0.26,1.65 0.47,2.35 0.21,0.69 0.46,1.31 0.75,1.86 0.29,0.53 0.62,1.01 0.98,1.4 0.37,0.39 0.77,0.73 1.22,1.02 0.43,0.28 0.92,0.51 1.43,0.68 0.53,0.17 1.1,0.3 1.67,0.37 0.59,0.08 1.21,0.1 1.85,0.09l0.04 0c1.27,0.04 2.45,-0.1 3.52,-0.43 0.51,-0.16 1,-0.38 1.43,-0.66 0.44,-0.27 0.85,-0.61 1.22,-1.01 0.36,-0.39 0.68,-0.86 0.97,-1.41 0.3,-0.55 0.55,-1.18 0.74,-1.87 0.21,-0.71 0.37,-1.5 0.47,-2.39 0.11,-0.89 0.16,-1.85 0.16,-2.92l0 -2.28c0,-1.07 -0.05,-2.05 -0.16,-2.94 -0.1,-0.89 -0.26,-1.7 -0.47,-2.44 -0.21,-0.72 -0.46,-1.37 -0.74,-1.95 -0.29,-0.57 -0.62,-1.07 -0.99,-1.5 -0.38,-0.44 -0.78,-0.8 -1.21,-1.11 -0.45,-0.3 -0.93,-0.53 -1.44,-0.72 -0.53,-0.18 -1.08,-0.31 -1.67,-0.39 -0.59,-0.08 -1.2,-0.12 -1.83,-0.09l-0.04 0c-0.64,-0.03 -1.24,0.01 -1.83,0.1 -0.59,0.08 -1.14,0.23 -1.67,0.42 -0.51,0.19 -0.99,0.44 -1.44,0.75 -0.44,0.3 -0.85,0.67 -1.22,1.1 -0.36,0.43 -0.7,0.93 -0.99,1.49 -0.29,0.59 -0.54,1.24 -0.75,1.94 -0.21,0.71 -0.36,1.52 -0.47,2.41zm-0.26 19.24c-0.21,-0.08 -0.41,-0.17 -0.59,-0.26l-0.04 0.04 -0.01 0.02c-0.13,0.19 -0.28,0.36 -0.43,0.51 -0.21,0.21 -0.44,0.38 -0.67,0.55 -0.24,0.16 -0.49,0.29 -0.75,0.4 -0.26,0.1 -0.52,0.18 -0.81,0.23 -0.29,0.06 -0.58,0.08 -0.86,0.08 -0.31,0 -0.6,-0.02 -0.87,-0.08 -0.27,-0.05 -0.54,-0.13 -0.79,-0.22l-0.03 -0.01c-0.25,-0.11 -0.5,-0.24 -0.75,-0.4 -0.21,-0.15 -0.43,-0.32 -0.63,-0.52l-0.03 -0.03c-0.2,-0.21 -0.39,-0.43 -0.55,-0.66 -0.15,-0.24 -0.28,-0.49 -0.39,-0.75 -0.21,-0.51 -0.31,-1.07 -0.31,-1.68l0 -12.43 0 -0.01 0 -0.01 0 -0.01 0 -0.02 0 -0.01 0 -0.01 0 -0.02 0 -0.01 0 -0.01 0 -0.02 0 -0.01 0 -0.01 0 -0.02 0 -0.01 0 -0.01 0 -0.03 0 -0.01 0 -0.03 0 -0.01 0 -0.01 0 -0.03 0 -0.03 0 -0.01 0 -0.02 0 -0.03 0 -0.03 0 -0.01 0 -0.03 0 -0.02 0 -0.03 0 -0.03 0 -0.01 0 -0.02 0 -0.91 0 -5.65 0 -17.74 0 -4.11c0,-0.28 0.02,-0.56 0.06,-0.84l0.02 -0.02c0.05,-0.29 0.13,-0.55 0.23,-0.82 0.11,-0.26 0.24,-0.51 0.39,-0.74 0.15,-0.23 0.33,-0.43 0.51,-0.63l0.04 -0.03 0 -0.01c0.21,-0.2 0.44,-0.38 0.66,-0.54 0.25,-0.16 0.5,-0.3 0.75,-0.4 0.26,-0.1 0.53,-0.17 0.82,-0.24 0.27,-0.05 0.56,-0.08 0.87,-0.08 0.28,0 0.57,0.03 0.86,0.08 0.29,0.07 0.55,0.14 0.81,0.24 0.26,0.1 0.51,0.24 0.75,0.4 0.23,0.16 0.46,0.34 0.67,0.54l-0.02 0 0.02 0.01c0.19,0.21 0.38,0.42 0.53,0.66 0.17,0.23 0.3,0.48 0.41,0.74 0.1,0.27 0.18,0.53 0.24,0.82 0.05,0.28 0.07,0.57 0.07,0.86l0 0.01 0.03 0.8 0.01 0.46 0 0.52 0.02 0.63 0 0.02 0 0.6 0 3.08 0 3.52 0 1.03 0 0.07 0 0.06 0 2.92c0.39,-0.17 0.78,-0.32 1.2,-0.49 0.7,-0.27 1.43,-0.51 2.19,-0.75 1.56,-0.47 3.34,-0.71 5.34,-0.71 1.45,0 2.82,0.11 4.06,0.31 1.26,0.2 2.41,0.52 3.44,0.94 1.04,0.42 1.98,0.91 2.85,1.5 0.85,0.59 1.62,1.26 2.31,2.03 0.69,0.76 1.28,1.59 1.79,2.51 0.49,0.9 0.91,1.88 1.25,2.93 0.34,1.05 0.61,2.16 0.79,3.33 0.18,1.16 0.3,2.38 0.35,3.66l0 0.04c-0.05,1.28 -0.17,2.5 -0.35,3.66 -0.18,1.15 -0.45,2.23 -0.79,3.26 -0.34,1.04 -0.76,2 -1.27,2.88 -0.49,0.89 -1.1,1.7 -1.78,2.45 -0.68,0.73 -1.45,1.38 -2.31,1.95 -0.87,0.56 -1.81,1.05 -2.85,1.44 -1.03,0.39 -2.17,0.69 -3.43,0.89 -1.26,0.2 -2.61,0.29 -4.06,0.29 -1.52,0 -2.93,-0.09 -4.24,-0.29 -1.3,-0.2 -2.49,-0.49 -3.57,-0.88l-0.04 -0.01c-0.37,-0.13 -0.75,-0.29 -1.12,-0.46z"/>
   <path class="fil1" d="M387.9 125.06c0,-0.29 0.03,-0.58 0.08,-0.87 0.05,-0.27 0.13,-0.53 0.23,-0.8 0.11,-0.24 0.24,-0.49 0.4,-0.73 0.15,-0.22 0.32,-0.44 0.53,-0.65 0.2,-0.2 0.42,-0.38 0.66,-0.54 0.23,-0.16 0.47,-0.29 0.73,-0.39 0.25,-0.11 0.52,-0.19 0.8,-0.24 0.29,-0.05 0.56,-0.08 0.85,-0.08 0.29,0 0.58,0.03 0.85,0.08l0.01 0c0.28,0.05 0.54,0.13 0.81,0.24l0.02 0.01c0.25,0.1 0.49,0.23 0.71,0.38 0.22,0.16 0.44,0.33 0.65,0.54 0.2,0.19 0.38,0.42 0.54,0.65 0.16,0.24 0.29,0.49 0.39,0.73l0.02 0.03c0.09,0.25 0.17,0.51 0.22,0.77l0 0.03c0.05,0.27 0.06,0.55 0.06,0.84l0 0.02 0.03 0.76 0 0.02 0.01 0.43 0.02 0.52 0 0.63 0.01 0.59 0 2.36 0 0.02 0 0.06 0 24.96c0,2 0.29,3.68 0.89,5 0.3,0.68 0.64,1.28 1.02,1.83 0.37,0.54 0.79,1.01 1.25,1.43 0.47,0.42 0.95,0.79 1.46,1.07 0.51,0.31 1.05,0.56 1.61,0.74 0.34,0.1 0.69,0.18 1.04,0.26 0.42,0.09 0.85,0.19 1.24,0.32l0.07 0.02c1.01,0.37 1.61,1.04 1.84,1.76 0.13,0.39 0.15,0.79 0.04,1.19 -0.09,0.38 -0.29,0.73 -0.59,1.05 -0.6,0.6 -1.59,0.97 -2.93,0.81 -2.08,-0.24 -4.13,-0.74 -6.02,-1.57 -1.73,-0.76 -3.33,-1.8 -4.72,-3.16 -1.61,-1.57 -2.83,-3.43 -3.63,-5.58 -0.79,-2.12 -1.2,-4.52 -1.2,-7.19l0 -23 0 -0.02 0 -5.33z"/>
   <path class="fil2" d="M12.29 130.23c-1.45,0 -2.68,-0.2 -3.71,-0.6 -1.02,-0.4 -1.83,-1 -2.41,-1.78 -0.6,-0.78 -1.02,-1.68 -1.28,-2.71 -0.26,-1.02 -0.39,-2.22 -0.39,-3.6l0 -9.25c0,-1.41 0.13,-2.63 0.39,-3.67 0.26,-1.04 0.68,-1.95 1.28,-2.72 0.58,-0.78 1.39,-1.37 2.41,-1.76 1.01,-0.39 2.25,-0.58 3.71,-0.58 1.4,0 2.59,0.17 3.58,0.53 0.99,0.35 1.76,0.87 2.32,1.56 0.56,0.69 0.96,1.48 1.2,2.35 0.25,0.88 0.37,1.89 0.37,3.05l0 2.29 -5.6 0 0 -2.61c0,-0.41 -0.01,-0.72 -0.02,-0.93 -0.01,-0.21 -0.05,-0.48 -0.11,-0.81 -0.06,-0.32 -0.15,-0.57 -0.27,-0.74 -0.12,-0.16 -0.31,-0.31 -0.56,-0.44 -0.25,-0.13 -0.55,-0.2 -0.91,-0.2 -0.35,0 -0.65,0.07 -0.9,0.2 -0.25,0.13 -0.44,0.28 -0.58,0.47 -0.13,0.18 -0.23,0.43 -0.31,0.75 -0.08,0.31 -0.12,0.6 -0.14,0.86 -0.02,0.27 -0.02,0.59 -0.02,0.98l0 12.1c0,1.04 0.13,1.84 0.4,2.39 0.27,0.54 0.79,0.82 1.55,0.82 0.35,0 0.64,-0.07 0.89,-0.2 0.24,-0.13 0.43,-0.28 0.55,-0.46 0.13,-0.18 0.23,-0.43 0.29,-0.75 0.07,-0.33 0.11,-0.61 0.12,-0.85 0.01,-0.24 0.02,-0.56 0.02,-0.95l0 -2.73 5.6 0 0 2.24c0,0.93 -0.07,1.77 -0.22,2.52 -0.14,0.75 -0.39,1.46 -0.74,2.12 -0.35,0.67 -0.81,1.22 -1.36,1.67 -0.56,0.45 -1.27,0.8 -2.14,1.06 -0.87,0.25 -1.87,0.38 -3.01,0.38z"/>
   <path class="fil2" d="M28.3 126.69c0.5,0 0.85,-0.18 1.04,-0.55 0.19,-0.37 0.29,-0.93 0.29,-1.67l0 -7.72c0,-0.75 -0.1,-1.31 -0.29,-1.68 -0.19,-0.37 -0.54,-0.56 -1.04,-0.56 -0.48,0 -0.82,0.19 -1.01,0.58 -0.19,0.38 -0.29,0.93 -0.29,1.66l0 7.72c0,0.72 0.1,1.27 0.29,1.65 0.19,0.38 0.53,0.57 1.01,0.57zm4.77 1.94c-1.16,1.05 -2.75,1.57 -4.77,1.57 -2.03,0 -3.61,-0.52 -4.74,-1.57 -1.14,-1.04 -1.71,-2.55 -1.71,-4.52l0 -7c0,-1.98 0.57,-3.49 1.71,-4.53 1.13,-1.04 2.71,-1.56 4.74,-1.56 2.02,0 3.61,0.52 4.77,1.57 1.15,1.04 1.73,2.55 1.73,4.52l0 7c0,1.97 -0.58,3.48 -1.73,4.52z"/>
   <path class="fil2" d="M37.31 129.87l0 -18.53 5.12 0 0 1.5c1.24,-1.23 2.71,-1.85 4.41,-1.85 0.73,0 1.37,0.19 1.92,0.57 0.55,0.37 0.96,0.91 1.24,1.62 1.31,-1.46 2.89,-2.19 4.75,-2.19 1.08,0 1.95,0.4 2.6,1.19 0.64,0.8 0.97,1.89 0.97,3.29l0 14.4 -5.14 0 0 -13.87c0,-0.51 -0.09,-0.88 -0.26,-1.11 -0.18,-0.23 -0.46,-0.33 -0.83,-0.31 -0.57,0.02 -1.14,0.24 -1.71,0.67l0 0.22 0 14.4 -5.09 0 0 -13.87c0,-0.5 -0.09,-0.87 -0.27,-1.1 -0.18,-0.24 -0.46,-0.34 -0.84,-0.32 -0.52,0.02 -1.11,0.25 -1.75,0.7l0 14.59 -5.12 0z"/>
   <path class="fil2" d="M67.7 126.79l0.03 0c0.44,-0.01 0.76,-0.21 0.97,-0.58 0.21,-0.4 0.32,-0.9 0.33,-1.52l0 -8.58c0,-0.56 -0.11,-1.03 -0.34,-1.41 -0.21,-0.33 -0.51,-0.5 -0.89,-0.5l-0.15 0c-0.39,0.03 -0.85,0.24 -1.36,0.61l0 11.52c0.5,0.31 0.97,0.46 1.41,0.46zm-6.64 9.19l0 -24.64 5.23 0 0 1.36c1.28,-1.12 2.56,-1.68 3.85,-1.68l0.18 0c1.33,0.04 2.33,0.58 2.98,1.6 0.65,1.02 0.98,2.32 0.98,3.88l0 7.91c0,1.76 -0.36,3.17 -1.06,4.22 -0.7,1.05 -1.71,1.57 -3.01,1.57 -1.3,0 -2.6,-0.57 -3.92,-1.72l0 7.5 -5.23 0z"/>
   <path class="fil2" d="M81.69 118.49l2.55 0 0 -1.85c0,-0.69 -0.12,-1.17 -0.34,-1.46 -0.23,-0.29 -0.56,-0.43 -0.99,-0.43 -0.41,0 -0.71,0.17 -0.92,0.5 -0.2,0.33 -0.3,0.9 -0.3,1.71l0 1.53zm1.23 11.71c-2.04,0 -3.62,-0.55 -4.74,-1.64 -1.12,-1.1 -1.67,-2.64 -1.67,-4.64l0 -6.63c0,-2 0.56,-3.54 1.68,-4.63 1.12,-1.09 2.7,-1.64 4.73,-1.64 2.06,0 3.6,0.53 4.63,1.59 1.03,1.06 1.54,2.62 1.54,4.68l0 3.64 -7.4 0 0 3.26c0,0.75 0.09,1.32 0.28,1.7 0.19,0.38 0.51,0.57 0.95,0.57 0.88,0 1.32,-0.6 1.32,-1.8l0 -1.24 4.85 0 0 1.08c0,1.85 -0.54,3.26 -1.62,4.24 -1.08,0.97 -2.59,1.46 -4.55,1.46z"/>
   <path class="fil2" d="M96.8 130.09c-0.57,-0.02 -1.09,-0.1 -1.56,-0.24 -0.46,-0.14 -0.85,-0.32 -1.18,-0.54 -0.32,-0.22 -0.6,-0.5 -0.84,-0.83 -0.24,-0.34 -0.43,-0.68 -0.57,-1.04 -0.15,-0.35 -0.26,-0.76 -0.34,-1.23 -0.08,-0.47 -0.14,-0.92 -0.17,-1.36 -0.03,-0.43 -0.05,-0.92 -0.05,-1.46l0 -8.64 -1.77 0 0 -3.41 1.77 0 0 -5.62 5.28 0 0 5.62 2.66 0 0 3.41 -2.66 0 0 9.58c0,0.97 0.55,1.47 1.67,1.5 0.14,0.01 0.29,0.01 0.46,0 0.17,-0.01 0.32,-0.02 0.43,-0.04 0.1,-0.01 0.21,-0.03 0.32,-0.05 0.11,-0.02 0.17,-0.03 0.18,-0.03l0 4.11c-1.11,0.19 -2.15,0.29 -3.1,0.29 -0.17,0 -0.35,-0.01 -0.53,-0.02z"/>
   <path class="fil2" d="M107.31 118.49l2.56 0 0 -1.85c0,-0.69 -0.12,-1.17 -0.35,-1.46 -0.23,-0.29 -0.56,-0.43 -0.99,-0.43 -0.4,0 -0.71,0.17 -0.91,0.5 -0.21,0.33 -0.31,0.9 -0.31,1.71l0 1.53zm1.24 11.71c-2.05,0 -3.63,-0.55 -4.74,-1.64 -1.12,-1.1 -1.68,-2.64 -1.68,-4.64l0 -6.63c0,-2 0.56,-3.54 1.68,-4.63 1.13,-1.09 2.7,-1.64 4.74,-1.64 2.06,0 3.6,0.53 4.63,1.59 1.02,1.06 1.54,2.62 1.54,4.68l0 3.64 -7.41 0 0 3.26c0,0.75 0.1,1.32 0.29,1.7 0.18,0.38 0.5,0.57 0.95,0.57 0.88,0 1.32,-0.6 1.32,-1.8l0 -1.24 4.85 0 0 1.08c0,1.85 -0.54,3.26 -1.62,4.24 -1.08,0.97 -2.6,1.46 -4.55,1.46z"/>
   <path class="fil2" d="M117.17 129.87l0 -18.53 5.23 0 0 1.84c1.47,-1.44 2.96,-2.16 4.49,-2.16 1.09,0 1.93,0.4 2.52,1.21 0.58,0.8 0.88,1.84 0.88,3.1l0 14.54 -5.23 0 0 -13.76c0,-0.47 -0.08,-0.82 -0.22,-1.04 -0.15,-0.23 -0.42,-0.33 -0.82,-0.32 -0.43,0 -0.98,0.21 -1.62,0.64l0 14.48 -5.23 0z"/>
   <path class="fil2" d="M139.09 130.2c-2.03,0 -3.61,-0.55 -4.73,-1.65 -1.11,-1.1 -1.67,-2.64 -1.67,-4.61l0 -6.7c0,-1.96 0.56,-3.49 1.67,-4.58 1.12,-1.09 2.7,-1.64 4.73,-1.64 2,0 3.55,0.47 4.63,1.4 1.08,0.94 1.62,2.33 1.62,4.18l0 1.95 -5.04 0 0 -2.1c0,-0.7 -0.1,-1.19 -0.29,-1.45 -0.2,-0.26 -0.5,-0.39 -0.9,-0.39 -0.41,0 -0.71,0.16 -0.9,0.48 -0.18,0.33 -0.28,0.89 -0.28,1.68l0 7.68c0,0.81 0.1,1.36 0.29,1.66 0.2,0.31 0.49,0.46 0.89,0.46 0.4,0 0.7,-0.14 0.9,-0.42 0.19,-0.27 0.29,-0.73 0.29,-1.38l0 -2.44 5.04 0 0 2.23c0,1.84 -0.55,3.24 -1.64,4.2 -1.09,0.96 -2.63,1.44 -4.61,1.44z"/>
   <path class="fil2" d="M147.72 111.34l5.23 0 0 18.53 -5.23 0 0 -18.53zm-0.03 -6.8l5.26 0 0 3.68 -5.26 0 0 -3.68z"/>
   <path class="fil2" d="M161.54 126.6c0.25,0 0.51,-0.09 0.77,-0.26 0.27,-0.17 0.49,-0.38 0.65,-0.62l0 -5.07c-0.83,0.42 -1.52,1.01 -2.06,1.76 -0.53,0.76 -0.8,1.5 -0.8,2.22 0,0.6 0.13,1.08 0.4,1.44 0.28,0.35 0.62,0.53 1.04,0.53zm-1.9 3.6c-1.31,-0.02 -2.36,-0.49 -3.14,-1.4 -0.77,-0.91 -1.16,-1.96 -1.16,-3.12 0,-0.61 0.07,-1.18 0.22,-1.7 0.16,-0.53 0.34,-0.99 0.55,-1.37 0.22,-0.39 0.52,-0.76 0.9,-1.13 0.39,-0.36 0.74,-0.66 1.05,-0.88 0.31,-0.23 0.73,-0.47 1.25,-0.72 0.51,-0.26 0.93,-0.45 1.24,-0.58 0.31,-0.12 0.74,-0.29 1.28,-0.49 0.53,-0.2 0.91,-0.35 1.13,-0.45l0 -1.83c0,-0.52 -0.08,-0.92 -0.23,-1.2 -0.16,-0.28 -0.45,-0.42 -0.86,-0.42 -0.71,0 -1.09,0.49 -1.13,1.47l-0.13 1.36 -4.88 -0.19c0,-0.03 0,-0.13 0.02,-0.31 0.01,-0.18 0.01,-0.28 0.01,-0.3 0.16,-2.02 0.79,-3.52 1.89,-4.48 1.1,-0.96 2.67,-1.44 4.72,-1.44 1.82,0 3.21,0.51 4.17,1.52 0.95,1.01 1.43,2.37 1.43,4.06l0 8.62c0,1.19 0.11,2.74 0.33,4.65l-4.65 0c-0.27,-1.5 -0.42,-2.38 -0.44,-2.63 -0.25,0.85 -0.68,1.55 -1.28,2.11 -0.61,0.57 -1.37,0.85 -2.29,0.85z"/>
   <path class="fil2" d="M176.15 130.2c-1.58,0 -2.89,-0.37 -3.93,-1.12 -1.04,-0.75 -1.88,-1.93 -2.52,-3.54l3.62 -1.59c0.35,0.88 0.77,1.56 1.25,2.04 0.43,0.44 0.88,0.66 1.35,0.66l0.15 0c0.33,-0.02 0.6,-0.15 0.82,-0.39 0.22,-0.23 0.32,-0.52 0.31,-0.87 -0.01,-0.17 -0.08,-0.36 -0.2,-0.57 -0.12,-0.2 -0.34,-0.46 -0.68,-0.78 -0.33,-0.32 -0.56,-0.54 -0.69,-0.65 -0.14,-0.11 -0.43,-0.37 -0.9,-0.77l-1.45 -1.23c-2.09,-1.78 -3.14,-3.51 -3.14,-5.2 -0.01,-1 0.25,-1.91 0.8,-2.71 0.52,-0.79 1.21,-1.4 2.08,-1.82 0.87,-0.43 1.8,-0.64 2.82,-0.64 1.51,0 2.78,0.41 3.79,1.24 1.02,0.82 1.74,2 2.16,3.52l-3.39 1.58c-0.2,-0.7 -0.51,-1.31 -0.9,-1.84 -0.4,-0.54 -0.85,-0.82 -1.35,-0.85l-0.05 0c-0.37,-0.01 -0.66,0.09 -0.87,0.3 -0.23,0.21 -0.35,0.47 -0.36,0.78 -0.05,0.5 0.7,1.39 2.22,2.66 0.13,0.12 0.22,0.2 0.28,0.25l1.4 1.25c0.54,0.47 0.94,0.84 1.22,1.11 0.27,0.26 0.6,0.63 0.98,1.1 0.39,0.47 0.67,0.95 0.84,1.44 0.17,0.49 0.26,1.02 0.26,1.58 0,1.06 -0.28,1.98 -0.85,2.76 -0.56,0.78 -1.28,1.36 -2.17,1.74 -0.88,0.37 -1.85,0.56 -2.9,0.56z"/>
   <path class="fil2" d="M197.74 125.9l0.87 0c0.44,0 0.81,-0.03 1.12,-0.09 0.31,-0.06 0.57,-0.16 0.77,-0.31 0.2,-0.14 0.36,-0.3 0.48,-0.46 0.12,-0.16 0.21,-0.39 0.27,-0.7 0.06,-0.31 0.09,-0.6 0.11,-0.88 0.02,-0.28 0.02,-0.65 0.02,-1.12l0 -11.16c0,-0.66 -0.02,-1.16 -0.07,-1.52 -0.06,-0.35 -0.18,-0.68 -0.36,-0.97 -0.19,-0.29 -0.47,-0.49 -0.84,-0.6 -0.37,-0.11 -0.88,-0.17 -1.51,-0.17l-0.86 0 0 17.98zm-5.73 3.97l0 -25.96 6.52 0c1.71,0 3.12,0.16 4.24,0.46 1.12,0.3 2.02,0.8 2.68,1.49 0.67,0.69 1.14,1.53 1.41,2.52 0.27,1 0.41,2.25 0.41,3.75l0 9.37c0,1.51 -0.14,2.77 -0.41,3.79 -0.28,1.02 -0.75,1.88 -1.41,2.59 -0.67,0.7 -1.55,1.21 -2.67,1.52 -1.11,0.31 -2.5,0.47 -4.17,0.47l-6.6 0z"/>
   <path class="fil2" d="M210.11 111.34l5.23 0 0 18.53 -5.23 0 0 -18.53zm-0.03 -6.8l5.26 0 0 3.68 -5.26 0 0 -3.68z"/>
   <path class="fil2" d="M224.5 121.01c0.6,0 0.98,-0.25 1.16,-0.74 0.18,-0.5 0.27,-1.39 0.27,-2.67 0,-1.35 -0.08,-2.26 -0.24,-2.73 -0.17,-0.48 -0.57,-0.72 -1.2,-0.72 -0.22,0 -0.41,0.03 -0.57,0.09 -0.15,0.06 -0.28,0.16 -0.39,0.32 -0.1,0.16 -0.18,0.31 -0.24,0.46 -0.06,0.15 -0.1,0.39 -0.12,0.7 -0.03,0.31 -0.05,0.59 -0.05,0.83 -0.01,0.24 -0.01,0.59 -0.01,1.05 0,0.61 0.02,1.11 0.05,1.48 0.03,0.37 0.09,0.71 0.18,1.03 0.09,0.32 0.23,0.55 0.42,0.69 0.19,0.14 0.44,0.21 0.74,0.21zm0.68 11.15c0.85,0 1.48,-0.09 1.88,-0.27 0.39,-0.18 0.61,-0.47 0.65,-0.89 0.01,-0.11 0.02,-0.21 0.02,-0.31 0,-0.4 -0.12,-0.69 -0.35,-0.88 -0.29,-0.25 -0.82,-0.41 -1.59,-0.49l-2.8 -0.34c-0.5,0.72 -0.74,1.33 -0.74,1.83 0,0.47 0.22,0.81 0.65,1.03 0.43,0.21 1.19,0.32 2.28,0.32zm0.01 3.27c-0.5,0 -0.95,-0.01 -1.37,-0.02 -0.41,-0.02 -0.89,-0.05 -1.45,-0.11 -0.56,-0.05 -1.06,-0.12 -1.5,-0.22 -0.44,-0.09 -0.88,-0.22 -1.34,-0.4 -0.45,-0.18 -0.83,-0.39 -1.12,-0.64 -0.3,-0.24 -0.55,-0.55 -0.74,-0.91 -0.19,-0.37 -0.29,-0.77 -0.29,-1.22 0,-1.23 0.88,-2.46 2.65,-3.68 -0.78,-0.28 -1.34,-0.59 -1.69,-0.93 -0.36,-0.33 -0.57,-0.72 -0.63,-1.15 -0.03,-0.17 -0.05,-0.34 -0.05,-0.51 0,-0.5 0.15,-0.95 0.44,-1.36 0.39,-0.54 1.01,-1.15 1.86,-1.83 -1.34,-0.98 -2.02,-2.51 -2.02,-4.6 0,-2.31 0.57,-4.02 1.69,-5.14 1.12,-1.13 2.71,-1.69 4.76,-1.69 1.98,0 3.39,0.54 4.23,1.62 0.78,-0.92 1.62,-1.61 2.51,-2.07l0.68 -0.35 1.21 2.56c-0.31,0.09 -0.81,0.29 -1.49,0.59 -0.68,0.3 -1.21,0.57 -1.61,0.82 0.62,0.93 0.92,2.15 0.92,3.63 0,1.99 -0.5,3.54 -1.51,4.65 -1,1.12 -2.53,1.67 -4.57,1.67 -0.5,0 -1.03,-0.05 -1.59,-0.16 -0.57,-0.11 -1.03,-0.24 -1.37,-0.39 -0.38,0.49 -0.57,0.88 -0.57,1.16 0,0.04 0.01,0.09 0.02,0.13 0.04,0.31 0.61,0.55 1.7,0.7 0.3,0.05 0.96,0.15 1.99,0.28 1.04,0.13 1.71,0.21 2.04,0.25 1.78,0.24 3.04,0.72 3.76,1.42 0.73,0.71 1.09,1.72 1.09,3.05 0,0.75 -0.11,1.41 -0.33,1.98 -0.22,0.56 -0.58,1.07 -1.08,1.51 -0.5,0.45 -1.19,0.79 -2.06,1.01 -0.88,0.23 -1.94,0.35 -3.17,0.35z"/>
   <path class="fil2" d="M233.87 111.34l5.23 0 0 18.53 -5.23 0 0 -18.53zm-0.03 -6.8l5.26 0 0 3.68 -5.26 0 0 -3.68z"/>
   <path class="fil2" d="M247.23 130.09c-0.57,-0.02 -1.09,-0.1 -1.56,-0.24 -0.46,-0.14 -0.85,-0.32 -1.18,-0.54 -0.32,-0.22 -0.6,-0.5 -0.84,-0.83 -0.24,-0.34 -0.43,-0.68 -0.57,-1.04 -0.14,-0.35 -0.26,-0.76 -0.34,-1.23 -0.08,-0.47 -0.14,-0.92 -0.17,-1.36 -0.03,-0.43 -0.05,-0.92 -0.05,-1.46l0 -8.64 -1.77 0 0 -3.41 1.77 0 0 -5.62 5.28 0 0 5.62 2.66 0 0 3.41 -2.66 0 0 9.58c0,0.97 0.55,1.47 1.67,1.5 0.14,0.01 0.29,0.01 0.46,0 0.18,-0.01 0.32,-0.02 0.43,-0.04 0.11,-0.01 0.22,-0.03 0.33,-0.05 0.1,-0.02 0.16,-0.03 0.17,-0.03l0 4.11c-1.11,0.19 -2.15,0.29 -3.1,0.29 -0.17,0 -0.35,-0.01 -0.53,-0.02z"/>
   <path class="fil2" d="M258.64 126.6c0.25,0 0.51,-0.09 0.77,-0.26 0.27,-0.17 0.48,-0.38 0.65,-0.62l0 -5.07c-0.83,0.42 -1.52,1.01 -2.06,1.76 -0.54,0.76 -0.8,1.5 -0.8,2.22 0,0.6 0.13,1.08 0.4,1.44 0.27,0.35 0.62,0.53 1.04,0.53zm-1.9 3.6c-1.31,-0.02 -2.36,-0.49 -3.14,-1.4 -0.77,-0.91 -1.16,-1.96 -1.16,-3.12 0,-0.61 0.07,-1.18 0.22,-1.7 0.15,-0.53 0.34,-0.99 0.55,-1.37 0.22,-0.39 0.52,-0.76 0.9,-1.13 0.39,-0.36 0.74,-0.66 1.05,-0.88 0.31,-0.23 0.73,-0.47 1.25,-0.72 0.51,-0.26 0.93,-0.45 1.24,-0.58 0.31,-0.12 0.74,-0.29 1.28,-0.49 0.53,-0.2 0.91,-0.35 1.13,-0.45l0 -1.83c0,-0.52 -0.08,-0.92 -0.23,-1.2 -0.16,-0.28 -0.45,-0.42 -0.87,-0.42 -0.71,0 -1.08,0.49 -1.12,1.47l-0.13 1.36 -4.88 -0.19c0,-0.03 0,-0.13 0.01,-0.31 0.01,-0.18 0.02,-0.28 0.02,-0.3 0.16,-2.02 0.78,-3.52 1.89,-4.48 1.1,-0.96 2.67,-1.44 4.72,-1.44 1.82,0 3.21,0.51 4.17,1.52 0.95,1.01 1.43,2.37 1.43,4.06l0 8.62c0,1.19 0.11,2.74 0.33,4.65l-4.65 0c-0.27,-1.5 -0.42,-2.38 -0.44,-2.63 -0.25,0.85 -0.68,1.55 -1.28,2.11 -0.61,0.57 -1.37,0.85 -2.29,0.85z"/>
   <polygon class="fil2" points="268.04,103.91 273.26,103.91 273.26,129.87 268.04,129.87 "/>
   <path class="fil2" d="M281.04 118.49l2.55 0 0 -1.85c0,-0.69 -0.12,-1.17 -0.35,-1.46 -0.23,-0.29 -0.56,-0.43 -0.98,-0.43 -0.41,0 -0.72,0.17 -0.92,0.5 -0.2,0.33 -0.3,0.9 -0.3,1.71l0 1.53zm1.23 11.71c-2.04,0 -3.62,-0.55 -4.74,-1.64 -1.12,-1.1 -1.68,-2.64 -1.68,-4.64l0 -6.63c0,-2 0.57,-3.54 1.69,-4.63 1.12,-1.09 2.7,-1.64 4.73,-1.64 2.06,0 3.6,0.53 4.63,1.59 1.03,1.06 1.54,2.62 1.54,4.68l0 3.64 -7.4 0 0 3.26c0,0.75 0.09,1.32 0.28,1.7 0.19,0.38 0.5,0.57 0.95,0.57 0.88,0 1.32,-0.6 1.32,-1.8l0 -1.24 4.85 0 0 1.08c0,1.85 -0.54,3.26 -1.62,4.24 -1.08,0.97 -2.6,1.46 -4.55,1.46z"/>
   <path class="fil2" d="M296.32 130.2c-1.57,0 -2.88,-0.37 -3.93,-1.12 -1.04,-0.75 -1.88,-1.93 -2.52,-3.54l3.62 -1.59c0.35,0.88 0.77,1.56 1.25,2.04 0.43,0.44 0.88,0.66 1.35,0.66l0.15 0c0.33,-0.02 0.6,-0.15 0.82,-0.39 0.22,-0.23 0.32,-0.52 0.31,-0.87 -0.01,-0.17 -0.07,-0.36 -0.19,-0.57 -0.12,-0.2 -0.35,-0.46 -0.69,-0.78 -0.33,-0.32 -0.56,-0.54 -0.69,-0.65 -0.13,-0.11 -0.43,-0.37 -0.9,-0.77l-1.44 -1.23c-2.1,-1.78 -3.15,-3.51 -3.15,-5.2 -0.01,-1 0.26,-1.91 0.8,-2.71 0.52,-0.79 1.21,-1.4 2.08,-1.82 0.87,-0.43 1.81,-0.64 2.82,-0.64 1.51,0 2.78,0.41 3.79,1.24 1.02,0.82 1.74,2 2.16,3.52l-3.38 1.58c-0.21,-0.7 -0.51,-1.31 -0.91,-1.84 -0.4,-0.54 -0.85,-0.82 -1.35,-0.85l-0.04 0c-0.38,-0.01 -0.67,0.09 -0.88,0.3 -0.23,0.21 -0.35,0.47 -0.36,0.78 -0.04,0.5 0.7,1.39 2.22,2.66 0.13,0.12 0.22,0.2 0.28,0.25l1.4 1.25c0.54,0.47 0.95,0.84 1.22,1.11 0.27,0.26 0.6,0.63 0.98,1.1 0.39,0.47 0.67,0.95 0.84,1.44 0.17,0.49 0.26,1.02 0.26,1.58 0,1.06 -0.28,1.98 -0.85,2.76 -0.56,0.78 -1.28,1.36 -2.16,1.74 -0.89,0.37 -1.85,0.56 -2.91,0.56z"/>
   <path class="fil2" d="M14.04 171.51c-1.77,0 -3.28,-0.24 -4.53,-0.7 -1.26,-0.47 -2.25,-1.17 -2.97,-2.09 -0.73,-0.92 -1.26,-2 -1.59,-3.23 -0.33,-1.23 -0.5,-2.69 -0.5,-4.36l0 -11.19c0,-1.68 0.17,-3.14 0.5,-4.37 0.33,-1.24 0.86,-2.32 1.59,-3.24 0.72,-0.92 1.71,-1.61 2.97,-2.08 1.25,-0.47 2.76,-0.7 4.53,-0.7 1.41,0 2.65,0.14 3.72,0.44 1.07,0.29 1.95,0.69 2.64,1.21 0.69,0.52 1.26,1.16 1.69,1.93 0.44,0.76 0.75,1.58 0.93,2.45 0.18,0.88 0.27,1.85 0.27,2.92l0 2.78 -7.46 0 0 -3.4c0,-0.45 -0.01,-0.8 -0.03,-1.07 -0.03,-0.27 -0.09,-0.58 -0.2,-0.94 -0.11,-0.35 -0.29,-0.62 -0.55,-0.8 -0.26,-0.18 -0.6,-0.27 -1.01,-0.27 -0.34,0 -0.63,0.07 -0.87,0.2 -0.24,0.14 -0.43,0.3 -0.55,0.49 -0.13,0.19 -0.22,0.44 -0.29,0.75 -0.07,0.31 -0.11,0.58 -0.13,0.82 -0.02,0.24 -0.03,0.52 -0.03,0.84l0 15.25c0,0.33 0.01,0.61 0.03,0.85 0.02,0.25 0.06,0.52 0.14,0.83 0.07,0.3 0.17,0.55 0.3,0.74 0.12,0.2 0.31,0.36 0.55,0.49 0.24,0.13 0.53,0.2 0.85,0.2 0.41,0 0.75,-0.09 1.01,-0.28 0.26,-0.18 0.44,-0.45 0.55,-0.81 0.11,-0.36 0.17,-0.67 0.2,-0.94 0.02,-0.27 0.03,-0.63 0.03,-1.08l0 -3.55 7.46 0 0 2.77c0,1.08 -0.09,2.06 -0.27,2.94 -0.18,0.88 -0.49,1.71 -0.93,2.5 -0.43,0.78 -1,1.44 -1.69,1.97 -0.69,0.53 -1.57,0.95 -2.64,1.26 -1.07,0.31 -2.31,0.47 -3.72,0.47z"/>
   <path class="fil2" d="M33.2 166.98c0.56,0 1.06,-0.28 1.48,-0.86l0 -6.01c-0.96,0.44 -1.72,1.14 -2.29,2.08 -0.57,0.94 -0.85,1.8 -0.85,2.57 0,0.67 0.16,1.21 0.49,1.62 0.32,0.4 0.71,0.6 1.17,0.6zm-2.37 4.45c-0.87,-0.01 -1.66,-0.18 -2.35,-0.51 -0.7,-0.33 -1.27,-0.76 -1.7,-1.29 -0.43,-0.53 -0.76,-1.11 -0.99,-1.74 -0.23,-0.63 -0.34,-1.27 -0.34,-1.93 0,-0.73 0.09,-1.4 0.28,-2.04 0.18,-0.64 0.42,-1.19 0.71,-1.65 0.28,-0.47 0.66,-0.92 1.12,-1.34 0.46,-0.42 0.9,-0.77 1.33,-1.05 0.42,-0.27 0.92,-0.55 1.51,-0.83 0.59,-0.28 1.09,-0.5 1.51,-0.65 0.41,-0.16 0.91,-0.35 1.49,-0.56 0.58,-0.22 1.01,-0.39 1.28,-0.5l0 -2.39c0,-0.92 -0.35,-1.38 -1.05,-1.38 -0.38,0 -0.65,0.12 -0.8,0.36 -0.15,0.24 -0.24,0.58 -0.28,1l-0.21 1.77 -6.31 -0.26 0.03 -0.33c0.02,-0.23 0.02,-0.35 0.02,-0.36 0.2,-2.48 0.98,-4.31 2.35,-5.49 1.36,-1.19 3.32,-1.78 5.88,-1.78 2.18,0 3.87,0.62 5.07,1.84 1.2,1.23 1.8,2.8 1.8,4.72l0 10.41c0,0.69 0.02,1.36 0.06,2.03 0.04,0.67 0.07,1.15 0.09,1.46 0.03,0.3 0.08,0.72 0.14,1.26 0.07,0.53 0.11,0.81 0.11,0.82l-6.08 0c-0.32,-2 -0.49,-3.03 -0.5,-3.08 -0.3,1.01 -0.81,1.84 -1.52,2.5 -0.71,0.66 -1.59,0.99 -2.65,0.99z"/>
   <path class="fil2" d="M51.3 171.43c-1.92,0 -3.52,-0.4 -4.81,-1.21 -1.29,-0.81 -2.41,-2.19 -3.35,-4.13l4.54 -2.15c0.51,0.93 1.06,1.67 1.66,2.22 0.54,0.49 1.06,0.74 1.57,0.75 0.07,0 0.14,-0.01 0.21,-0.02 0.29,-0.04 0.55,-0.17 0.75,-0.39 0.21,-0.23 0.31,-0.51 0.29,-0.84 0,-0.18 -0.07,-0.37 -0.2,-0.57 -0.14,-0.21 -0.34,-0.44 -0.61,-0.7 -0.27,-0.26 -0.52,-0.49 -0.76,-0.69 -0.23,-0.2 -0.55,-0.47 -0.95,-0.79 -0.4,-0.32 -0.7,-0.57 -0.9,-0.73l-0.97 -0.82c-1.16,-0.99 -2.14,-2.05 -2.93,-3.21 -0.8,-1.15 -1.19,-2.27 -1.18,-3.35 0,-1.78 0.71,-3.28 2.14,-4.5 1.43,-1.21 3.09,-1.82 5,-1.82 1.85,0 3.43,0.48 4.72,1.43 1.29,0.95 2.23,2.36 2.83,4.22l-4.41 2.13c-0.26,-0.71 -0.65,-1.39 -1.16,-2.02 -0.51,-0.64 -1.03,-0.97 -1.57,-1.01 -0.41,-0.04 -0.74,0.05 -0.97,0.25 -0.24,0.21 -0.36,0.45 -0.38,0.74 -0.01,0.21 0.04,0.43 0.15,0.66 0.12,0.23 0.32,0.5 0.63,0.81 0.3,0.3 0.57,0.56 0.79,0.76 0.23,0.21 0.58,0.51 1.07,0.91 0.49,0.4 0.83,0.68 1.03,0.86l0.86 0.73c0.06,0.05 0.15,0.12 0.26,0.22 0.51,0.44 0.9,0.78 1.17,1.02 0.26,0.24 0.61,0.6 1.03,1.06 0.43,0.46 0.75,0.87 0.97,1.23 0.21,0.36 0.41,0.79 0.58,1.3 0.16,0.5 0.25,1.02 0.25,1.54 0,0.95 -0.21,1.81 -0.63,2.6 -0.42,0.78 -0.97,1.43 -1.67,1.93 -0.7,0.51 -1.48,0.9 -2.36,1.17 -0.87,0.28 -1.77,0.41 -2.69,0.41z"/>
   <path class="fil2" d="M67.01 171.27c-0.75,-0.04 -1.42,-0.16 -2.02,-0.35 -0.6,-0.19 -1.1,-0.44 -1.5,-0.74 -0.41,-0.3 -0.75,-0.68 -1.04,-1.14 -0.29,-0.46 -0.51,-0.92 -0.68,-1.38 -0.17,-0.46 -0.3,-1.01 -0.4,-1.65 -0.09,-0.63 -0.15,-1.21 -0.17,-1.75 -0.03,-0.52 -0.04,-1.14 -0.04,-1.85l0 -9.05 -2.08 0 0 -4.47 2.08 0 0 -6.82 6.93 0 0 6.82 3.05 0 0 4.47 -3.05 0 0 10.62c0,0.53 0.19,0.93 0.56,1.19 0.38,0.26 0.85,0.41 1.41,0.45 0.26,0.01 0.53,0 0.82,-0.03 0.29,-0.03 0.5,-0.06 0.65,-0.09 0.15,-0.03 0.24,-0.05 0.26,-0.07l0 5.48c-1.32,0.25 -2.61,0.37 -3.86,0.37 -0.32,0 -0.62,0 -0.92,-0.01z"/>
   <path class="fil2" d="M74.16 148.89l6.86 0 0 22.13 -6.86 0 0 -22.13zm-0.04 -8.24l6.9 0 0 4.39 -6.9 0 0 -4.39z"/>
   <polygon class="fil2" points="84.48,140.03 91.32,140.03 91.32,171.02 84.48,171.02 "/>
   <polygon class="fil2" points="94.97,140.03 101.81,140.03 101.81,171.02 94.97,171.02 "/>
   <path class="fil2" d="M112.38 166.98c0.56,0 1.05,-0.28 1.48,-0.86l0 -6.01c-0.96,0.44 -1.73,1.14 -2.29,2.08 -0.57,0.94 -0.85,1.8 -0.85,2.57 0,0.67 0.16,1.21 0.48,1.62 0.33,0.4 0.72,0.6 1.18,0.6zm-2.37 4.45c-0.88,-0.01 -1.66,-0.18 -2.36,-0.51 -0.7,-0.33 -1.26,-0.76 -1.69,-1.29 -0.43,-0.53 -0.76,-1.11 -0.99,-1.74 -0.23,-0.63 -0.35,-1.27 -0.35,-1.93 0,-0.73 0.1,-1.4 0.28,-2.04 0.19,-0.64 0.43,-1.19 0.71,-1.65 0.29,-0.47 0.66,-0.92 1.13,-1.34 0.46,-0.42 0.9,-0.77 1.32,-1.05 0.43,-0.27 0.93,-0.55 1.52,-0.83 0.58,-0.28 1.08,-0.5 1.5,-0.65 0.42,-0.16 0.92,-0.35 1.5,-0.56 0.58,-0.22 1,-0.39 1.28,-0.5l0 -2.39c0,-0.92 -0.35,-1.38 -1.05,-1.38 -0.39,0 -0.65,0.12 -0.8,0.36 -0.15,0.24 -0.25,0.58 -0.28,1l-0.21 1.77 -6.32 -0.26 0.04 -0.33c0.01,-0.23 0.02,-0.35 0.02,-0.36 0.2,-2.48 0.98,-4.31 2.34,-5.49 1.37,-1.19 3.33,-1.78 5.88,-1.78 2.18,0 3.87,0.62 5.08,1.84 1.2,1.23 1.8,2.8 1.8,4.72l0 10.41c0,0.69 0.02,1.36 0.06,2.03 0.03,0.67 0.07,1.15 0.09,1.46 0.03,0.3 0.07,0.72 0.14,1.26 0.07,0.53 0.1,0.81 0.1,0.82l-6.07 0c-0.33,-2 -0.49,-3.03 -0.51,-3.08 -0.29,1.01 -0.8,1.84 -1.51,2.5 -0.71,0.66 -1.59,0.99 -2.65,0.99z"/>
   <polygon class="fil2" points="124.24,154.91 134.57,154.91 134.57,159.15 124.24,159.15 "/>
   <polygon class="fil2" points="138.9,171.02 138.9,140.03 146.49,140.03 146.49,165.96 153.38,165.96 153.38,171.02 "/>
   <path class="fil2" d="M162.66 166.98c0.56,0 1.05,-0.28 1.48,-0.86l0 -6.01c-0.96,0.44 -1.73,1.14 -2.29,2.08 -0.57,0.94 -0.85,1.8 -0.85,2.57 0,0.67 0.16,1.21 0.48,1.62 0.33,0.4 0.72,0.6 1.18,0.6zm-2.37 4.45c-0.88,-0.01 -1.66,-0.18 -2.36,-0.51 -0.7,-0.33 -1.26,-0.76 -1.69,-1.29 -0.43,-0.53 -0.76,-1.11 -0.99,-1.74 -0.23,-0.63 -0.35,-1.27 -0.35,-1.93 0,-0.73 0.1,-1.4 0.28,-2.04 0.19,-0.64 0.43,-1.19 0.71,-1.65 0.29,-0.47 0.66,-0.92 1.13,-1.34 0.46,-0.42 0.9,-0.77 1.32,-1.05 0.43,-0.27 0.93,-0.55 1.52,-0.83 0.58,-0.28 1.08,-0.5 1.5,-0.65 0.42,-0.16 0.92,-0.35 1.5,-0.56 0.58,-0.22 1,-0.39 1.28,-0.5l0 -2.39c0,-0.92 -0.35,-1.38 -1.05,-1.38 -0.39,0 -0.65,0.12 -0.8,0.36 -0.15,0.24 -0.25,0.58 -0.28,1l-0.21 1.77 -6.32 -0.26 0.04 -0.33c0.01,-0.23 0.02,-0.35 0.02,-0.36 0.2,-2.48 0.98,-4.31 2.34,-5.49 1.37,-1.19 3.33,-1.78 5.88,-1.78 2.18,0 3.87,0.62 5.08,1.84 1.2,1.23 1.8,2.8 1.8,4.72l0 10.41c0,0.69 0.02,1.36 0.06,2.03 0.03,0.67 0.06,1.15 0.09,1.46 0.03,0.3 0.07,0.72 0.14,1.26 0.07,0.53 0.1,0.81 0.1,0.82l-6.07 0c-0.33,-2 -0.49,-3.03 -0.51,-3.08 -0.3,1.01 -0.8,1.84 -1.51,2.5 -0.71,0.66 -1.6,0.99 -2.65,0.99z"/>
   <polygon class="fil2" points="183.66,171.02 184.17,140.03 192.43,140.03 195.25,155.98 198.39,140.03 206.32,140.03 206.82,171.02 201.55,171.02 200.95,150.93 197.79,171.02 192.95,171.02 189.53,150.74 189.03,171.02 "/>
   <path class="fil2" d="M217.52 166.98c0.56,0 1.05,-0.28 1.47,-0.86l0 -6.01c-0.96,0.44 -1.72,1.14 -2.29,2.08 -0.56,0.94 -0.85,1.8 -0.85,2.57 0,0.67 0.17,1.21 0.49,1.62 0.32,0.4 0.72,0.6 1.18,0.6zm-2.38 4.45c-0.87,-0.01 -1.65,-0.18 -2.35,-0.51 -0.7,-0.33 -1.26,-0.76 -1.69,-1.29 -0.43,-0.53 -0.76,-1.11 -0.99,-1.74 -0.23,-0.63 -0.35,-1.27 -0.35,-1.93 0,-0.73 0.1,-1.4 0.28,-2.04 0.19,-0.64 0.42,-1.19 0.71,-1.65 0.29,-0.47 0.66,-0.92 1.12,-1.34 0.46,-0.42 0.91,-0.77 1.33,-1.05 0.42,-0.27 0.93,-0.55 1.51,-0.83 0.59,-0.28 1.09,-0.5 1.51,-0.65 0.42,-0.16 0.91,-0.35 1.49,-0.56 0.58,-0.22 1.01,-0.39 1.28,-0.5l0 -2.39c0,-0.92 -0.34,-1.38 -1.04,-1.38 -0.39,0 -0.66,0.12 -0.81,0.36 -0.15,0.24 -0.24,0.58 -0.28,1l-0.2 1.77 -6.32 -0.26 0.04 -0.33c0.01,-0.23 0.02,-0.35 0.02,-0.36 0.2,-2.48 0.98,-4.31 2.34,-5.49 1.37,-1.19 3.33,-1.78 5.88,-1.78 2.18,0 3.87,0.62 5.08,1.84 1.2,1.23 1.8,2.8 1.8,4.72l0 10.41c0,0.69 0.02,1.36 0.05,2.03 0.04,0.67 0.07,1.15 0.1,1.46 0.02,0.3 0.07,0.72 0.14,1.26 0.07,0.53 0.1,0.81 0.1,0.82l-6.07 0c-0.33,-2 -0.5,-3.03 -0.51,-3.08 -0.3,1.01 -0.8,1.84 -1.51,2.5 -0.71,0.66 -1.6,0.99 -2.66,0.99z"/>
   <path class="fil2" d="M228.68 171.02l0 -22.13 6.86 0 0 2.23c1.76,-1.76 3.53,-2.64 5.33,-2.64 1.34,0 2.4,0.49 3.18,1.47 0.77,0.98 1.15,2.28 1.15,3.89l0 17.18 -6.85 0 0 -16.37c0,-0.49 -0.09,-0.85 -0.25,-1.08 -0.16,-0.23 -0.44,-0.33 -0.84,-0.32 -0.53,0.05 -1.11,0.26 -1.72,0.63l0 17.14 -6.86 0z"/>
   <path class="fil2" d="M255.92 171.43c-2.38,0 -4.31,-0.62 -5.78,-1.87 -1.48,-1.24 -2.22,-2.96 -2.22,-5.14l0 -8.97c0,-2.18 0.74,-3.88 2.21,-5.12 1.47,-1.23 3.4,-1.85 5.79,-1.85 2.41,0 4.32,0.56 5.75,1.67 1.42,1.12 2.14,2.75 2.14,4.91l0 2.65 -6.69 0 0 -2.87c0,-0.68 -0.11,-1.13 -0.31,-1.37 -0.21,-0.23 -0.5,-0.35 -0.89,-0.35 -0.73,0 -1.1,0.63 -1.1,1.9l0 9.83c0,1.27 0.37,1.91 1.1,1.91 0.38,0 0.67,-0.12 0.88,-0.36 0.21,-0.23 0.32,-0.69 0.32,-1.36l0 -3.25 6.69 0 0 3.03c0,2.15 -0.72,3.79 -2.15,4.92 -1.43,1.13 -3.35,1.69 -5.74,1.69z"/>
   <path class="fil2" d="M266.47 171.02l0 -30.99 6.84 0 0 10.73c1.51,-1.52 3.29,-2.28 5.35,-2.28 1.33,0 2.38,0.49 3.15,1.47 0.78,0.98 1.16,2.28 1.16,3.89l0 17.18 -6.84 0 0 -16.37c0,-0.49 -0.08,-0.85 -0.25,-1.08 -0.17,-0.23 -0.45,-0.33 -0.85,-0.32 -0.54,0.05 -1.11,0.26 -1.72,0.63l0 17.14 -6.84 0z"/>
   <path class="fil2" d="M293.3 166.98c0.56,0 1.05,-0.28 1.47,-0.86l0 -6.01c-0.96,0.44 -1.72,1.14 -2.29,2.08 -0.56,0.94 -0.85,1.8 -0.85,2.57 0,0.67 0.17,1.21 0.49,1.62 0.32,0.4 0.72,0.6 1.18,0.6zm-2.38 4.45c-0.87,-0.01 -1.65,-0.18 -2.35,-0.51 -0.7,-0.33 -1.26,-0.76 -1.69,-1.29 -0.43,-0.53 -0.76,-1.11 -0.99,-1.74 -0.23,-0.63 -0.35,-1.27 -0.35,-1.93 0,-0.73 0.09,-1.4 0.28,-2.04 0.19,-0.64 0.42,-1.19 0.71,-1.65 0.29,-0.47 0.66,-0.92 1.12,-1.34 0.46,-0.42 0.91,-0.77 1.33,-1.05 0.42,-0.27 0.93,-0.55 1.51,-0.83 0.59,-0.28 1.09,-0.5 1.51,-0.65 0.42,-0.16 0.91,-0.35 1.49,-0.56 0.58,-0.22 1.01,-0.39 1.28,-0.5l0 -2.39c0,-0.92 -0.35,-1.38 -1.04,-1.38 -0.39,0 -0.66,0.12 -0.81,0.36 -0.15,0.24 -0.24,0.58 -0.28,1l-0.2 1.77 -6.32 -0.26 0.04 -0.33c0.01,-0.23 0.02,-0.35 0.02,-0.36 0.2,-2.48 0.98,-4.31 2.34,-5.49 1.37,-1.19 3.33,-1.78 5.88,-1.78 2.18,0 3.87,0.62 5.07,1.84 1.21,1.23 1.81,2.8 1.81,4.72l0 10.41c0,0.69 0.02,1.36 0.05,2.03 0.04,0.67 0.07,1.15 0.1,1.46 0.02,0.3 0.07,0.72 0.14,1.26 0.07,0.53 0.1,0.81 0.1,0.82l-6.07 0c-0.33,-2 -0.5,-3.03 -0.51,-3.08 -0.3,1.01 -0.8,1.84 -1.51,2.5 -0.71,0.66 -1.6,0.99 -2.66,0.99z"/>
   <path class="fil2" d="M12.42 81.69c2.08,0 2.45,-0.95 2.45,-2.96 0,-1.66 -0.22,-2.88 -2.48,-2.88l-1.86 0 0 5.84 1.89 0zm-7.52 -9.25l8.56 0c4.56,0 6.7,2.3 6.7,6.37 0,5.07 -3.24,6.27 -7.36,6.27l-2.27 0 0 9.33 -5.63 0 0 -21.97z"/>
   <polygon class="fil2" points="21.69,72.44 26.78,72.44 26.78,94.41 21.69,94.41 "/>
   <path class="fil2" d="M35.7 90.91l0 -4.29c-1.7,0.84 -2.86,1.79 -2.86,3.37 0,1.05 0.54,1.71 1.42,1.71 0.63,0 1.1,-0.39 1.44,-0.79zm-7.48 -0.06c0,-3.9 4.05,-5.12 7.48,-6.15l0 -1.58c0,-0.81 -0.22,-1.38 -1.07,-1.38 -0.88,0 -1.1,0.54 -1.13,1.25l-0.12 1.14 -4.79 -0.17c0.19,-3.77 2.27,-5.5 6.51,-5.5 3.68,0 5.51,1.95 5.51,4.72l0 7.32c0,1.95 0.16,3.15 0.31,3.91l-4.59 0c-0.12,-0.84 -0.34,-2.04 -0.41,-2.23 -0.44,1.31 -1.57,2.5 -3.49,2.5 -2.77,0 -4.21,-1.98 -4.21,-3.83z"/>
   <path class="fil2" d="M43.3 90.15l0 -8.52 -1.76 0 0 -2.9 1.76 0 0 -4.78 5.19 0 0 4.78 2.58 0 0 2.9 -2.58 0 0 8.08c0,0.9 0.66,1.28 1.6,1.28 0.54,0 1.01,-0.06 1.39,-0.11l0 3.47c-0.57,0.08 -1.86,0.22 -3.08,0.22 -4.12,0 -5.1,-1.6 -5.1,-4.42z"/>
   <path class="fil2" d="M60 90.91l0 -4.29c-1.69,0.84 -2.86,1.79 -2.86,3.37 0,1.05 0.54,1.71 1.42,1.71 0.63,0 1.1,-0.39 1.44,-0.79zm-7.48 -0.06c0,-3.9 4.05,-5.12 7.48,-6.15l0 -1.58c0,-0.81 -0.22,-1.38 -1.07,-1.38 -0.88,0 -1.1,0.54 -1.13,1.25l-0.12 1.14 -4.78 -0.17c0.18,-3.77 2.26,-5.5 6.51,-5.5 3.68,0 5.5,1.95 5.5,4.72l0 7.32c0,1.95 0.16,3.15 0.31,3.91l-4.59 0c-0.12,-0.84 -0.34,-2.04 -0.41,-2.23 -0.44,1.31 -1.57,2.5 -3.49,2.5 -2.77,0 -4.21,-1.98 -4.21,-3.83z"/>
   <path class="fil2" d="M67.65 81.71l-1.73 0 0 -2.98 1.73 0 0 -1.17c0,-2.76 0.56,-4.58 4.97,-4.58 0.78,0 1.54,0.03 2.45,0.13l0 3.29c-0.28,-0.06 -0.73,-0.14 -1.1,-0.14 -0.76,0 -1.2,0.35 -1.2,1.22l0 1.25 2.3 0 0 2.98 -2.3 0 0 12.7 -5.12 0 0 -12.7z"/>
   <path class="fil2" d="M83.52 89.85l0 -6.56c0,-1.2 -0.28,-1.9 -1.29,-1.9 -1,0 -1.32,0.73 -1.32,1.9l0 6.56c0,1.19 0.32,1.9 1.32,1.9 1.01,0 1.29,-0.71 1.29,-1.9zm-7.67 -0.3l0 -5.97c0,-3.41 2.45,-5.12 6.35,-5.12 3.87,0 6.39,1.71 6.39,5.12l0 5.97c0,3.42 -2.52,5.13 -6.39,5.13 -3.9,0 -6.35,-1.71 -6.35,-5.13z"/>
   <path class="fil2" d="M90.18 78.73l5.13 0 0 2.6c1.16,-1.79 2.2,-2.79 3.9,-2.79 0.31,0 0.56,0.03 0.78,0.08l0 4.4c-0.47,-0.17 -1.04,-0.33 -1.67,-0.33 -1.19,0 -2.2,0.6 -3.01,1.52l0 10.2 -5.13 0 0 -15.68z"/>
   <path class="fil2" d="M101.14 78.73l5.03 0 0 1.25c1.32,-1.12 2.8,-1.55 4.31,-1.55 1.44,0 2.54,0.65 3.11,1.87 1.42,-1.38 3.02,-1.87 4.62,-1.87 2.14,0 3.53,1.41 3.53,3.8l0 12.18 -5.04 0 0 -11.72c0,-0.87 -0.34,-1.22 -1.06,-1.22 -0.45,0 -1.14,0.22 -1.7,0.57l0 0.19 0 12.18 -4.97 0 0 -11.72c0,-0.87 -0.38,-1.22 -1.1,-1.22 -0.47,0 -1.1,0.22 -1.7,0.57l0 12.37 -5.03 0 0 -15.68z"/>
   <path class="fil2" d="M130.6 90.91l0 -4.29c-1.69,0.84 -2.86,1.79 -2.86,3.37 0,1.05 0.54,1.71 1.42,1.71 0.63,0 1.1,-0.39 1.44,-0.79zm-7.48 -0.06c0,-3.9 4.06,-5.12 7.48,-6.15l0 -1.58c0,-0.81 -0.22,-1.38 -1.06,-1.38 -0.88,0 -1.11,0.54 -1.14,1.25l-0.12 1.14 -4.78 -0.17c0.19,-3.77 2.26,-5.5 6.51,-5.5 3.68,0 5.5,1.95 5.5,4.72l0 7.32c0,1.95 0.16,3.15 0.31,3.91l-4.59 0c-0.12,-0.84 -0.34,-2.04 -0.4,-2.23 -0.45,1.31 -1.58,2.5 -3.5,2.5 -2.76,0 -4.21,-1.98 -4.21,-3.83z"/>
   <path class="fil2" d="M152.56 91.45l0 -9.9c-0.41,-0.19 -0.92,-0.35 -1.32,-0.35 -0.95,0 -1.32,0.76 -1.32,1.71l0 7.21c0,0.98 0.34,1.74 1.28,1.74 0.35,0 0.85,-0.14 1.36,-0.41zm-7.8 -1.6l0 -6.48c0,-2.9 1.41,-4.91 4.21,-4.91 1.35,0 2.58,0.49 3.59,1.24l0 -7.26 5.12 0 0 21.97 -5.12 0 0 -1.22c-1.14,0.95 -2.36,1.49 -3.59,1.49 -2.7,0 -4.21,-1.63 -4.21,-4.83z"/>
   <path class="fil2" d="M166.88 84.78l0 -1.58c0,-1.24 -0.57,-1.6 -1.36,-1.6 -0.75,0 -1.22,0.41 -1.22,1.85l0 1.33 2.58 0zm-7.65 4.66l0 -5.75c0,-3.36 2.39,-5.23 6.32,-5.23 4.03,0 6.04,1.82 6.04,5.23l0 3.15 -7.29 0 0 3.01c0,1.22 0.5,1.68 1.25,1.68 0.76,0 1.33,-0.38 1.33,-1.52l0 -1.65 4.71 0 0 1.52c0,3.17 -2.26,4.8 -6.04,4.8 -3.96,0 -6.32,-1.9 -6.32,-5.24z"/>
   <polygon class="fil2" points="181.15,72.44 192.16,72.44 192.16,75.72 186.78,75.72 186.78,81.25 191.47,81.25 191.47,84.64 186.78,84.64 186.78,94.41 181.15,94.41 "/>
   <path class="fil2" d="M200.67 89.85l0 -6.56c0,-1.2 -0.28,-1.9 -1.29,-1.9 -1,0 -1.32,0.73 -1.32,1.9l0 6.56c0,1.19 0.32,1.9 1.32,1.9 1.01,0 1.29,-0.71 1.29,-1.9zm-7.67 -0.3l0 -5.97c0,-3.41 2.45,-5.12 6.35,-5.12 3.87,0 6.38,1.71 6.38,5.12l0 5.97c0,3.42 -2.51,5.13 -6.38,5.13 -3.9,0 -6.35,-1.71 -6.35,-5.13z"/>
   <path class="fil2" d="M207.33 78.73l5.12 0 0 2.6c1.17,-1.79 2.21,-2.79 3.91,-2.79 0.31,0 0.56,0.03 0.78,0.08l0 4.4c-0.47,-0.17 -1.04,-0.33 -1.67,-0.33 -1.19,0 -2.2,0.6 -3.02,1.52l0 10.2 -5.12 0 0 -15.68z"/>
   <path class="fil2" d="M218.29 78.73l5.03 0 0 1.25c1.32,-1.12 2.8,-1.55 4.31,-1.55 1.44,0 2.54,0.65 3.11,1.87 1.41,-1.38 3.02,-1.87 4.62,-1.87 2.14,0 3.52,1.41 3.52,3.8l0 12.18 -5.03 0 0 -11.72c0,-0.87 -0.34,-1.22 -1.07,-1.22 -0.44,0 -1.13,0.22 -1.69,0.57l0 0.19 0 12.18 -4.97 0 0 -11.72c0,-0.87 -0.38,-1.22 -1.1,-1.22 -0.48,0 -1.1,0.22 -1.7,0.57l0 12.37 -5.03 0 0 -15.68z"/>
   <path class="fil2" d="M247.75 90.91l0 -4.29c-1.69,0.84 -2.86,1.79 -2.86,3.37 0,1.05 0.54,1.71 1.42,1.71 0.63,0 1.1,-0.39 1.44,-0.79zm-7.48 -0.06c0,-3.9 4.06,-5.12 7.48,-6.15l0 -1.58c0,-0.81 -0.22,-1.38 -1.07,-1.38 -0.88,0 -1.09,0.54 -1.13,1.25l-0.12 1.14 -4.78 -0.17c0.19,-3.77 2.26,-5.5 6.51,-5.5 3.68,0 5.5,1.95 5.5,4.72l0 7.32c0,1.95 0.16,3.15 0.32,3.91l-4.6 0c-0.12,-0.84 -0.34,-2.04 -0.41,-2.23 -0.44,1.31 -1.57,2.5 -3.49,2.5 -2.76,0 -4.21,-1.98 -4.21,-3.83z"/>
   <path class="fil2" d="M254.06 89.44l0 -5.75c0,-3.33 2.32,-5.23 6.29,-5.23 3.86,0 6.13,1.54 6.13,4.72l0 1.65 -4.94 0 0 -1.79c0,-1.25 -0.44,-1.57 -1.19,-1.57 -0.76,0 -1.14,0.46 -1.14,1.84l0 6.51c0,1.41 0.41,1.82 1.17,1.82 0.78,0 1.16,-0.41 1.16,-1.55l0 -2.08 4.94 0 0 1.89c0,3.18 -2.3,4.78 -6.13,4.78 -3.97,0 -6.29,-1.95 -6.29,-5.24z"/>
   <path class="fil2" d="M267.91 78.73l5.12 0 0 15.68 -5.12 0 0 -15.68zm-0.03 -5.72l5.15 0 0 3.06 -5.15 0 0 -3.06z"/>
   <path class="fil2" d="M282.22 89.85l0 -6.56c0,-1.2 -0.28,-1.9 -1.29,-1.9 -1,0 -1.32,0.73 -1.32,1.9l0 6.56c0,1.19 0.32,1.9 1.32,1.9 1.01,0 1.29,-0.71 1.29,-1.9zm-1.04 -18.31l5.23 0 -3.97 5.45 -3.24 0 1.98 -5.45zm-6.63 18.01l0 -5.97c0,-3.41 2.45,-5.12 6.35,-5.12 3.87,0 6.39,1.71 6.39,5.12l0 5.97c0,3.42 -2.52,5.13 -6.39,5.13 -3.9,0 -6.35,-1.71 -6.35,-5.13z"/>
   <path class="fil2" d="M288.85 78.73l5.13 0 0 1.57c1.32,-1.14 2.77,-1.84 4.37,-1.84 2.23,0 3.37,1.57 3.37,3.66l0 12.29 -5.1 0 0 -11.67c0,-0.76 -0.25,-1.16 -1.04,-1.16 -0.41,0 -1,0.21 -1.6,0.57l0 12.26 -5.13 0 0 -15.68z"/>
  </g>
 </g>
</svg>
